<svg width="40" height="40" viewBox="0 0 40 40" fill="none" xmlns="http://www.w3.org/2000/svg">
<g clip-path="url(#clip0_231_2034)">
<circle opacity="0.08" cx="20" cy="20" r="20" fill="#6E6E6E"/>
<path d="M12.8405 7.65637C11.5344 7.65637 10.4756 8.73926 10.4756 10.0751C10.4756 11.4109 11.5344 12.4938 12.8405 12.4938C14.1467 12.4938 15.2055 11.4109 15.2055 10.0751C15.2055 8.73926 14.1467 7.65637 12.8405 7.65637Z" fill="#6E6E6E"/>
<path d="M10.6147 14.4856C10.5379 14.4856 10.4756 14.5493 10.4756 14.6279V29.4246C10.4756 29.5032 10.5379 29.5669 10.6147 29.5669H15.0664C15.1432 29.5669 15.2055 29.5032 15.2055 29.4246V14.6279C15.2055 14.5493 15.1432 14.4856 15.0664 14.4856H10.6147Z" fill="#6E6E6E"/>
<path d="M17.8486 14.4856C17.7718 14.4856 17.7095 14.5493 17.7095 14.6279V29.4246C17.7095 29.5032 17.7718 29.5669 17.8486 29.5669H22.3003C22.3771 29.5669 22.4394 29.5032 22.4394 29.4246V21.4571C22.4394 20.8911 22.6593 20.3483 23.0506 19.9481C23.4419 19.5479 23.9727 19.323 24.5261 19.323C25.0796 19.323 25.6103 19.5479 26.0017 19.9481C26.393 20.3483 26.6129 20.8911 26.6129 21.4571V29.4246C26.6129 29.5032 26.6751 29.5669 26.752 29.5669H31.2036C31.2805 29.5669 31.3427 29.5032 31.3427 29.4246V19.6135C31.3427 16.8514 28.9938 14.6905 26.3066 14.9403C25.4779 15.0174 24.6585 15.2281 23.8934 15.5634L22.4394 16.2007V14.6279C22.4394 14.5493 22.3771 14.4856 22.3003 14.4856H17.8486Z" fill="#6E6E6E"/>
</g>
<defs>
<clipPath id="clip0_231_2034">
<rect width="40" height="40" fill="white"/>
</clipPath>
</defs>
</svg>
