<svg width="234" height="30" viewBox="0 0 234 30" fill="none" xmlns="http://www.w3.org/2000/svg">
<g clip-path="url(#clip0_231_41)">
<path d="M57.1545 27.3872L47.1646 17.3907L44.8663 15.0897L42.4046 12.6199L38.7121 16.322L41.1738 18.7866L42.4046 17.5543L44.7029 19.8553L50.9338 26.0936H46.0053L37.1799 17.2526L34.7181 14.7931L32.2564 12.3233L34.7181 9.8587L37.1799 12.3233L39.6416 9.8587L34.7181 4.92944L32.2564 7.39408L29.7947 9.8587L27.333 12.3233L29.7947 14.788L32.2564 17.2526L34.7181 19.7223L44.4935 29.5042L47.7162 29.5809H59.3404L57.1545 27.3872Z" fill="white"/>
<path d="M17.4808 22.1868L15.0242 24.6514L12.5574 27.1161L10.0957 29.5807H15.0242L17.4808 27.1161L19.9477 24.6514L22.4094 27.1161L24.8711 29.5807H29.7945L19.9477 19.7222L17.4808 22.1868Z" fill="#C6C6C6"/>
<path d="M24.8713 9.85852L27.333 7.39389L29.7947 4.92926L32.2564 2.46463L29.7947 0L27.333 2.46463L24.8713 4.92926L22.4096 7.39389L19.9478 9.85852L17.481 12.3232L15.0193 14.7878L12.5576 17.2524L10.0959 19.717L7.63417 22.1868L5.17245 24.6514L2.71074 27.116L0.249023 29.5807H5.17245L7.63417 27.116L10.0959 24.6514L12.5576 22.1868L15.0244 19.7222L17.481 17.2524L19.9478 14.7929L22.4096 17.2524L24.8713 19.7222L27.333 22.1868L29.7947 24.6514L34.7181 29.5807H39.6416L22.4096 12.3232L24.8713 9.85852Z" fill="#005D3F"/>
<path d="M196.874 16.6593H203.529V29.9949H206.864V16.6593H213.519V13.3254H200.204L196.874 16.6593Z" fill="#005D3F"/>
<path d="M223.508 23.3271H228.503V26.661H223.508C222.119 26.661 220.94 26.1753 219.969 25.2037C218.999 24.2322 218.514 23.051 218.514 21.6602C218.514 20.2694 218.999 19.0882 219.969 18.1167C220.94 17.1451 222.119 16.6593 223.508 16.6593H230.168L233.498 13.3306H223.508C221.205 13.3306 219.239 14.1436 217.615 15.7645C215.996 17.3854 215.184 19.3541 215.184 21.6653C215.184 23.9714 215.996 25.9401 217.615 27.5661C219.234 29.187 221.2 30.0001 223.508 30.0001H228.503H231.833V19.9984H226.838L223.508 23.3271Z" fill="#005D3F"/>
<path d="M193.632 13.3254H176.987V16.6593H193.632V13.3254Z" fill="white"/>
<path d="M117.053 13.3254H113.723V29.9898H117.053V13.3254Z" fill="white"/>
<path d="M150.347 24.9941L140.357 13.3254H137.032V29.9949H140.357V18.3263L150.347 29.9949H153.682V13.3254H150.347V24.9941Z" fill="white"/>
<path d="M165.332 16.6593H171.992L175.322 13.3254H165.332C163.028 13.3254 161.062 14.1385 159.438 15.7594C157.819 17.3803 157.007 19.349 157.007 21.6602C157.007 23.9663 157.819 25.9349 159.438 27.561C161.057 29.1819 163.023 29.9949 165.332 29.9949H173.657V26.661H165.332C163.943 26.661 162.763 26.1753 161.792 25.2037C160.822 24.2322 160.337 23.051 160.337 21.6602C160.337 20.2694 160.822 19.0882 161.792 18.1166C162.768 17.1451 163.943 16.6593 165.332 16.6593Z" fill="white"/>
<path d="M193.632 19.9932H176.987V23.3271H193.632V19.9932Z" fill="white"/>
<path d="M193.632 26.6611H176.987V29.995H193.632V26.6611Z" fill="white"/>
<path d="M102.666 26.661V13.3254H99.3359V26.661V29.9949H110.991V26.661H102.666Z" fill="white"/>
<path d="M88.2782 26.661V13.3254H84.9482V26.661V29.9949H96.6031V26.661H88.2782Z" fill="white"/>
<path d="M75.0964 12.4919L66.7715 29.9949H70.5202L75.0964 20.4074L78.079 26.661H75.2445L73.6561 29.9949H79.6725H80.6225H83.4212L75.0964 12.4919Z" fill="white"/>
<path d="M127.043 12.4919L118.718 29.9949H122.461L127.043 20.4074L130.03 26.661H127.196L125.602 29.9949H131.619H132.569H135.368L127.043 12.4919Z" fill="white"/>
</g>
<defs>
<clipPath id="clip0_231_41">
<rect width="234" height="30" fill="white"/>
</clipPath>
</defs>
</svg>
